{
	"asset":{
		"generator":"Khronos glTF Blender I/O v3.6.27",
		"version":"2.0"
	},
	"scene":0,
	"scenes":[
		{
			"name":"Scene",
			"nodes":[
				0,
				1,
				2,
				3,
				4,
				5,
				6,
				7,
				8,
				9,
				10
			]
		}
	],
	"nodes":[
		{
			"mesh":0,
			"name":"Base"
		},
		{
			"mesh":1,
			"name":"BTN_03",
			"scale":[
				0.5,
				0.14510691165924072,
				0.5
			],
			"translation":[
				1.2000000476837158,
				0.5953478813171387,
				-0.2121536135673523
			]
		},
		{
			"mesh":2,
			"name":"BTN_02",
			"scale":[
				0.5,
				0.14510691165924072,
				0.5
			],
			"translation":[
				0,
				0.5953478813171387,
				-0.2121536135673523
			]
		},
		{
			"mesh":3,
			"name":"BTN_01",
			"scale":[
				0.5,
				0.14510691165924072,
				0.5
			],
			"translation":[
				-1.2000000476837158,
				0.5953478813171387,
				-0.2121536135673523
			]
		},
		{
			"mesh":4,
			"name":"BTN_06",
			"scale":[
				0.5,
				0.14510691165924072,
				0.5
			],
			"translation":[
				1.2000000476837158,
				0.5953478813171387,
				0.9281719326972961
			]
		},
		{
			"mesh":5,
			"name":"BTN_05",
			"scale":[
				0.5,
				0.14510691165924072,
				0.5
			],
			"translation":[
				0,
				0.5953478813171387,
				0.9281719326972961
			]
		},
		{
			"mesh":6,
			"name":"BTN_04",
			"scale":[
				0.5,
				0.14510691165924072,
				0.5
			],
			"translation":[
				-1.2000000476837158,
				0.5953478813171387,
				0.9281719326972961
			]
		},
		{
			"mesh":7,
			"name":"BTN_09",
			"scale":[
				0.5,
				0.14510691165924072,
				0.5
			],
			"translation":[
				1.2000000476837158,
				0.5953478813171387,
				2.086176872253418
			]
		},
		{
			"mesh":8,
			"name":"BTN_08",
			"scale":[
				0.5,
				0.14510691165924072,
				0.5
			],
			"translation":[
				0,
				0.5953478813171387,
				2.086176872253418
			]
		},
		{
			"mesh":9,
			"name":"BTN_07",
			"scale":[
				0.5,
				0.14510691165924072,
				0.5
			],
			"translation":[
				-1.2000000476837158,
				0.5953478813171387,
				2.086176872253418
			]
		},
		{
			"mesh":10,
			"name":"Screen"
		}
	],
	"materials":[
		{
			"doubleSided":true,
			"name":"MAT_base",
			"pbrMetallicRoughness":{
				"baseColorFactor":[
					0.24090805649757385,
					0.5053017139434814,
					0.8000000715255737,
					1
				],
				"metallicFactor":0,
				"roughnessFactor":0.5
			}
		},
		{
			"doubleSided":true,
			"name":"MAT_BTN",
			"pbrMetallicRoughness":{
				"baseColorFactor":[
					0.4037487804889679,
					0.8000000715255737,
					0.4062317907810211,
					1
				],
				"metallicFactor":0,
				"roughnessFactor":0.5
			}
		},
		{
			"doubleSided":true,
			"name":"MAT_screen",
			"pbrMetallicRoughness":{
				"baseColorFactor":[
					0.7470495104789734,
					0.3354916572570801,
					0.8000000715255737,
					1
				],
				"metallicFactor":0,
				"roughnessFactor":0.5
			}
		}
	],
	"meshes":[
		{
			"name":"Cube",
			"primitives":[
				{
					"attributes":{
						"POSITION":0,
						"NORMAL":1,
						"TEXCOORD_0":2
					},
					"indices":3,
					"material":0
				}
			]
		},
		{
			"name":"Cube.001",
			"primitives":[
				{
					"attributes":{
						"POSITION":4,
						"NORMAL":5,
						"TEXCOORD_0":6
					},
					"indices":7,
					"material":1
				}
			]
		},
		{
			"name":"Cube.002",
			"primitives":[
				{
					"attributes":{
						"POSITION":8,
						"NORMAL":9,
						"TEXCOORD_0":10
					},
					"indices":7,
					"material":1
				}
			]
		},
		{
			"name":"Cube.003",
			"primitives":[
				{
					"attributes":{
						"POSITION":11,
						"NORMAL":12,
						"TEXCOORD_0":13
					},
					"indices":7,
					"material":1
				}
			]
		},
		{
			"name":"Cube.004",
			"primitives":[
				{
					"attributes":{
						"POSITION":14,
						"NORMAL":15,
						"TEXCOORD_0":16
					},
					"indices":7,
					"material":1
				}
			]
		},
		{
			"name":"Cube.005",
			"primitives":[
				{
					"attributes":{
						"POSITION":17,
						"NORMAL":18,
						"TEXCOORD_0":19
					},
					"indices":7,
					"material":1
				}
			]
		},
		{
			"name":"Cube.006",
			"primitives":[
				{
					"attributes":{
						"POSITION":20,
						"NORMAL":21,
						"TEXCOORD_0":22
					},
					"indices":7,
					"material":1
				}
			]
		},
		{
			"name":"Cube.007",
			"primitives":[
				{
					"attributes":{
						"POSITION":23,
						"NORMAL":24,
						"TEXCOORD_0":25
					},
					"indices":7,
					"material":1
				}
			]
		},
		{
			"name":"Cube.008",
			"primitives":[
				{
					"attributes":{
						"POSITION":26,
						"NORMAL":27,
						"TEXCOORD_0":28
					},
					"indices":7,
					"material":1
				}
			]
		},
		{
			"name":"Cube.009",
			"primitives":[
				{
					"attributes":{
						"POSITION":29,
						"NORMAL":30,
						"TEXCOORD_0":31
					},
					"indices":7,
					"material":1
				}
			]
		},
		{
			"name":"Cube.010",
			"primitives":[
				{
					"attributes":{
						"POSITION":32,
						"NORMAL":33,
						"TEXCOORD_0":34
					},
					"indices":35,
					"material":2
				}
			]
		}
	],
	"accessors":[
		{
			"bufferView":0,
			"componentType":5126,
			"count":125,
			"max":[
				2.009021520614624,
				0.2969778776168823,
				2.8890249729156494
			],
			"min":[
				-2.009021520614624,
				-0.2969778776168823,
				-2.8890249729156494
			],
			"type":"VEC3"
		},
		{
			"bufferView":1,
			"componentType":5126,
			"count":125,
			"type":"VEC3"
		},
		{
			"bufferView":2,
			"componentType":5126,
			"count":125,
			"type":"VEC2"
		},
		{
			"bufferView":3,
			"componentType":5123,
			"count":240,
			"type":"SCALAR"
		},
		{
			"bufferView":4,
			"componentType":5126,
			"count":24,
			"max":[
				1,
				1,
				1
			],
			"min":[
				-1,
				-1,
				-1
			],
			"type":"VEC3"
		},
		{
			"bufferView":5,
			"componentType":5126,
			"count":24,
			"type":"VEC3"
		},
		{
			"bufferView":6,
			"componentType":5126,
			"count":24,
			"type":"VEC2"
		},
		{
			"bufferView":7,
			"componentType":5123,
			"count":36,
			"type":"SCALAR"
		},
		{
			"bufferView":8,
			"componentType":5126,
			"count":24,
			"max":[
				1,
				1,
				1
			],
			"min":[
				-1,
				-1,
				-1
			],
			"type":"VEC3"
		},
		{
			"bufferView":9,
			"componentType":5126,
			"count":24,
			"type":"VEC3"
		},
		{
			"bufferView":10,
			"componentType":5126,
			"count":24,
			"type":"VEC2"
		},
		{
			"bufferView":11,
			"componentType":5126,
			"count":24,
			"max":[
				1,
				1,
				1
			],
			"min":[
				-1,
				-1,
				-1
			],
			"type":"VEC3"
		},
		{
			"bufferView":12,
			"componentType":5126,
			"count":24,
			"type":"VEC3"
		},
		{
			"bufferView":13,
			"componentType":5126,
			"count":24,
			"type":"VEC2"
		},
		{
			"bufferView":14,
			"componentType":5126,
			"count":24,
			"max":[
				1,
				1,
				1
			],
			"min":[
				-1,
				-1,
				-1
			],
			"type":"VEC3"
		},
		{
			"bufferView":15,
			"componentType":5126,
			"count":24,
			"type":"VEC3"
		},
		{
			"bufferView":16,
			"componentType":5126,
			"count":24,
			"type":"VEC2"
		},
		{
			"bufferView":17,
			"componentType":5126,
			"count":24,
			"max":[
				1,
				1,
				1
			],
			"min":[
				-1,
				-1,
				-1
			],
			"type":"VEC3"
		},
		{
			"bufferView":18,
			"componentType":5126,
			"count":24,
			"type":"VEC3"
		},
		{
			"bufferView":19,
			"componentType":5126,
			"count":24,
			"type":"VEC2"
		},
		{
			"bufferView":20,
			"componentType":5126,
			"count":24,
			"max":[
				1,
				1,
				1
			],
			"min":[
				-1,
				-1,
				-1
			],
			"type":"VEC3"
		},
		{
			"bufferView":21,
			"componentType":5126,
			"count":24,
			"type":"VEC3"
		},
		{
			"bufferView":22,
			"componentType":5126,
			"count":24,
			"type":"VEC2"
		},
		{
			"bufferView":23,
			"componentType":5126,
			"count":24,
			"max":[
				1,
				1,
				1
			],
			"min":[
				-1,
				-1,
				-1
			],
			"type":"VEC3"
		},
		{
			"bufferView":24,
			"componentType":5126,
			"count":24,
			"type":"VEC3"
		},
		{
			"bufferView":25,
			"componentType":5126,
			"count":24,
			"type":"VEC2"
		},
		{
			"bufferView":26,
			"componentType":5126,
			"count":24,
			"max":[
				1,
				1,
				1
			],
			"min":[
				-1,
				-1,
				-1
			],
			"type":"VEC3"
		},
		{
			"bufferView":27,
			"componentType":5126,
			"count":24,
			"type":"VEC3"
		},
		{
			"bufferView":28,
			"componentType":5126,
			"count":24,
			"type":"VEC2"
		},
		{
			"bufferView":29,
			"componentType":5126,
			"count":24,
			"max":[
				1,
				1,
				1
			],
			"min":[
				-1,
				-1,
				-1
			],
			"type":"VEC3"
		},
		{
			"bufferView":30,
			"componentType":5126,
			"count":24,
			"type":"VEC3"
		},
		{
			"bufferView":31,
			"componentType":5126,
			"count":24,
			"type":"VEC2"
		},
		{
			"bufferView":32,
			"componentType":5126,
			"count":24,
			"max":[
				1.551976203918457,
				0.2846556305885315,
				-1.2349317073822021
			],
			"min":[
				-1.541638731956482,
				0.23698021471500397,
				-2.5846352577209473
			],
			"type":"VEC3"
		},
		{
			"bufferView":33,
			"componentType":5126,
			"count":24,
			"type":"VEC3"
		},
		{
			"bufferView":34,
			"componentType":5126,
			"count":24,
			"type":"VEC2"
		},
		{
			"bufferView":35,
			"componentType":5123,
			"count":78,
			"type":"SCALAR"
		}
	],
	"bufferViews":[
		{
			"buffer":0,
			"byteLength":1500,
			"byteOffset":0,
			"target":34962
		},
		{
			"buffer":0,
			"byteLength":1500,
			"byteOffset":1500,
			"target":34962
		},
		{
			"buffer":0,
			"byteLength":1000,
			"byteOffset":3000,
			"target":34962
		},
		{
			"buffer":0,
			"byteLength":480,
			"byteOffset":4000,
			"target":34963
		},
		{
			"buffer":0,
			"byteLength":288,
			"byteOffset":4480,
			"target":34962
		},
		{
			"buffer":0,
			"byteLength":288,
			"byteOffset":4768,
			"target":34962
		},
		{
			"buffer":0,
			"byteLength":192,
			"byteOffset":5056,
			"target":34962
		},
		{
			"buffer":0,
			"byteLength":72,
			"byteOffset":5248,
			"target":34963
		},
		{
			"buffer":0,
			"byteLength":288,
			"byteOffset":5320,
			"target":34962
		},
		{
			"buffer":0,
			"byteLength":288,
			"byteOffset":5608,
			"target":34962
		},
		{
			"buffer":0,
			"byteLength":192,
			"byteOffset":5896,
			"target":34962
		},
		{
			"buffer":0,
			"byteLength":288,
			"byteOffset":6088,
			"target":34962
		},
		{
			"buffer":0,
			"byteLength":288,
			"byteOffset":6376,
			"target":34962
		},
		{
			"buffer":0,
			"byteLength":192,
			"byteOffset":6664,
			"target":34962
		},
		{
			"buffer":0,
			"byteLength":288,
			"byteOffset":6856,
			"target":34962
		},
		{
			"buffer":0,
			"byteLength":288,
			"byteOffset":7144,
			"target":34962
		},
		{
			"buffer":0,
			"byteLength":192,
			"byteOffset":7432,
			"target":34962
		},
		{
			"buffer":0,
			"byteLength":288,
			"byteOffset":7624,
			"target":34962
		},
		{
			"buffer":0,
			"byteLength":288,
			"byteOffset":7912,
			"target":34962
		},
		{
			"buffer":0,
			"byteLength":192,
			"byteOffset":8200,
			"target":34962
		},
		{
			"buffer":0,
			"byteLength":288,
			"byteOffset":8392,
			"target":34962
		},
		{
			"buffer":0,
			"byteLength":288,
			"byteOffset":8680,
			"target":34962
		},
		{
			"buffer":0,
			"byteLength":192,
			"byteOffset":8968,
			"target":34962
		},
		{
			"buffer":0,
			"byteLength":288,
			"byteOffset":9160,
			"target":34962
		},
		{
			"buffer":0,
			"byteLength":288,
			"byteOffset":9448,
			"target":34962
		},
		{
			"buffer":0,
			"byteLength":192,
			"byteOffset":9736,
			"target":34962
		},
		{
			"buffer":0,
			"byteLength":288,
			"byteOffset":9928,
			"target":34962
		},
		{
			"buffer":0,
			"byteLength":288,
			"byteOffset":10216,
			"target":34962
		},
		{
			"buffer":0,
			"byteLength":192,
			"byteOffset":10504,
			"target":34962
		},
		{
			"buffer":0,
			"byteLength":288,
			"byteOffset":10696,
			"target":34962
		},
		{
			"buffer":0,
			"byteLength":288,
			"byteOffset":10984,
			"target":34962
		},
		{
			"buffer":0,
			"byteLength":192,
			"byteOffset":11272,
			"target":34962
		},
		{
			"buffer":0,
			"byteLength":288,
			"byteOffset":11464,
			"target":34962
		},
		{
			"buffer":0,
			"byteLength":288,
			"byteOffset":11752,
			"target":34962
		},
		{
			"buffer":0,
			"byteLength":192,
			"byteOffset":12040,
			"target":34962
		},
		{
			"buffer":0,
			"byteLength":156,
			"byteOffset":12232,
			"target":34963
		}
	],
	"buffers":[
		{
			"byteLength":12388,
			"uri":"data:application/octet-stream;base64,"
		}
	]
}
